<svg width="92" height="132" viewBox="0 0 92 132" fill="none" xmlns="http://www.w3.org/2000/svg">
<path d="M56.0855 1.07957C54.3144 1.32492 51.4609 1.61934 49.6898 1.66841C39.7519 2.15912 38.2267 2.79704 37.4396 7.01711C37.046 9.27436 37.046 9.27436 38.8663 10.5502C40.9326 11.9732 40.9326 12.6602 39.1615 16.1442C38.0299 18.3034 37.8331 17.9599 38.5219 15.0156C38.9647 13.0528 38.9647 12.5621 38.4235 12.3658C38.0791 12.2677 37.0952 11.5316 36.2588 10.7956L34.7337 9.47064L35.816 6.33012C36.8492 3.38588 36.8492 3.14053 36.062 2.55168C33.7989 0.883286 28.338 2.94424 26.862 6.08477C25.9765 7.99853 25.8289 12.8074 26.616 14.3777C26.9112 14.9666 29.4695 17.7636 32.2738 20.6097L37.3412 25.7621L38.8663 33.2699C39.6535 37.3918 40.3422 40.8759 40.3422 41.0231C40.3422 41.1703 37.5872 38.8149 34.1925 35.8216C30.5519 32.5829 27.8952 29.835 27.7476 29.148C27.5508 28.461 27.5508 27.1361 27.6984 26.1547C27.8952 25.1732 27.8952 23.0632 27.6984 21.493C27.4524 19.1866 27.2556 18.6469 26.5176 18.6469C24.5989 18.6469 21.893 23.9956 20.4171 30.7673C20.1219 32.3376 20.6631 33.9078 21.9914 35.2327C22.3358 35.5762 22.631 36.3614 22.631 36.9502C22.6802 40.1398 27.2556 46.1264 30.4043 47.1569C33.5037 48.1383 33.6021 48.3346 33.2577 52.8982L32.9626 57.0201L34.6845 58.9338C36.8984 61.3874 36.8492 61.142 35.9636 73.8513L35.3732 81.7026L39.3583 85.432C41.523 87.4439 43.2941 89.4067 43.2941 89.7502C43.2941 90.0937 43.0481 91.8112 42.8021 93.6268C42.5069 95.4424 41.9658 101.086 41.5722 106.238C41.1786 111.341 40.5882 117.819 40.293 120.616L39.7027 125.67L42.1626 128.172L44.6224 130.626L45.016 125.032C45.5572 116.297 45.7048 90.7807 45.2128 88.3271C44.9176 87.1004 44.524 83.4692 44.3273 80.2305C43.9337 74.7837 43.7861 74.0967 42.1134 70.9071C40.5882 67.9628 40.2438 66.8342 39.9978 63.1539C39.8503 60.7495 39.8995 58.8848 40.1454 58.8848C40.3914 58.9338 41.4246 59.9643 42.4577 61.2402C43.9337 63.0558 44.2289 63.7918 43.9829 64.7732C43.1465 68.1591 43.2449 70.4654 44.4257 73.5569L45.6064 76.6483L46.3936 74.6364C46.9839 73.2625 47.2299 71.1524 47.2299 68.0119C47.2299 63.939 47.3775 63.1048 48.6075 60.8476C49.3454 59.4245 50.1818 58.345 50.4278 58.4431C51.4609 58.8357 50.723 65.264 49.1978 69.0424C47.0823 74.2929 46.6888 77.8751 47.3283 85.8245C47.7219 90.2409 47.7219 94.2156 47.4267 97.6506C47.1315 101.331 47.1807 104.177 47.5743 107.465C48.1155 111.39 48.0663 113.304 47.4267 119.487C47.0331 123.56 46.738 127.878 46.8363 129.056C46.9839 131.166 47.0331 131.264 48.7059 131.411C49.6406 131.509 50.8706 131.215 51.4117 130.822C52.2973 130.184 52.3957 129.546 52.3465 122.824C52.3465 118.849 52.0021 111.145 51.6577 105.747C50.5754 90.5353 50.5754 89.9465 52.6417 87.3457L54.3636 85.1866L54.216 75.5688C54.0684 66.687 54.1176 65.8037 55.1016 63.5956C56.7251 59.768 56.8727 57.3636 55.6428 54.5175C55.0524 53.1435 54.7572 51.7205 54.954 51.1807C55.1016 50.69 56.4299 49.0216 57.9059 47.4513C59.3818 45.832 60.5134 44.1145 60.5134 43.5257C60.5626 41.9063 62.2845 38.3733 64.4984 35.429C67.9914 30.8654 68.7786 26.2528 66.9091 21.8364C66.2203 20.2662 65.9251 18.4506 65.9251 16.0952V12.6112L64.892 13.5435C63.3668 14.9175 62.4813 16.8803 61.6941 20.7078C60.4642 26.4982 59.4802 28.0684 54.5604 31.6506C50.0342 34.9383 48.4599 36.8521 47.9187 39.6491C47.7711 40.5324 47.4267 41.3175 47.2299 41.4647C46.6888 41.8082 46.1476 33.4662 46.5412 30.3747C46.7871 28.1175 47.1807 27.3814 49.1486 25.3695C50.477 23.9465 52.9369 22.229 55.1508 21.1004C58.693 19.2848 58.9882 19.0394 61.7433 14.6721L64.646 10.1576L64.0556 6.23198C63.2192 0.343506 62.8257 0.147232 56.0855 1.07957Z" fill="#FED46C"/>
<path d="M67.6471 36.5576C65.3348 40.0907 63.6128 43.9182 63.17 46.4699L62.8749 48.5308L67.2535 52.8491C72.1733 57.7071 75.5679 62.0743 78.7658 67.6193C80.8813 71.2505 80.9305 71.545 80.9305 75.5688C80.9305 79.1018 80.7337 80.0833 79.7005 81.8498C78.1754 84.5487 75.2727 86.3152 71.7797 86.7078C68.1882 87.1004 67.1059 87.6401 67.9914 88.6706C69.123 90.0446 72.4684 91.2714 75.1251 91.2714C83.3904 91.2714 88.7037 88.0327 90.6225 81.7517C91.508 78.9056 91.6064 77.5807 91.3604 73.1643C90.9176 64.9204 86.9326 52.9472 82.8492 47.6966C81.6192 46.1755 79.7497 43.6729 78.6182 42.2007C75.7647 38.3732 71.2877 33.8587 70.3037 33.8587C69.8118 33.8587 68.6802 35.0855 67.6471 36.5576Z" fill="#FED46C"/>
<path d="M17.416 43.1331C13.923 45.145 9.88876 49.7086 7.42887 54.4193C4.77218 59.5227 1.03315 70.9562 0.688761 75.0781C0.147584 81.2119 2.41069 87.493 6.88769 92.4C10.2823 96.1294 12.1027 97.1108 15.8417 97.5034C21.5487 97.9941 26.862 96.1294 27.108 93.4796C27.2556 91.3205 27.2064 91.2714 22.9754 91.2714C16.2353 91.2714 14.169 90.1918 12.0043 85.6283C10.5775 82.684 10.4299 77.4335 11.6107 73.9985C12.5454 71.1524 21.3519 60.5532 25.5829 57.1673C29.0759 54.3703 30.5027 52.7509 30.5027 51.5242C30.5027 50.7881 21.0567 41.7101 20.2695 41.7101C20.0727 41.7101 18.7936 42.348 17.416 43.1331Z" fill="#FED46C"/>
<path d="M35.7176 86.6587C35.1765 88.0818 35.4224 92.0074 36.4064 97.4052C36.9476 100.399 37.5872 104.766 37.8823 107.17C38.1775 109.918 38.6203 111.881 39.1123 112.323C39.7519 113.01 39.8503 112.912 39.8995 111.39C39.8995 110.458 40.0962 105.6 40.293 100.595C40.4898 95.5896 40.4898 90.8297 40.2438 89.9465C39.8503 88.5234 37.3904 85.8736 36.4064 85.8736C36.2096 85.8736 35.8652 86.2171 35.7176 86.6587Z" fill="#FED46C"/>
<path d="M53.0845 88.8178C51.7561 90.0937 51.6085 90.5844 51.8545 92.1546C52.0021 93.136 52.3465 96.1784 52.6417 98.8773C52.9369 101.576 53.5273 106.14 53.9208 109.035C54.4128 112.421 54.5112 115.61 54.3144 117.917C54.0684 120.468 54.1668 121.646 54.5604 121.891C55.3968 122.431 56.3315 121.45 56.9711 119.389C57.7583 116.69 57.7583 95.3933 56.9711 91.026C56.1839 86.9531 55.3968 86.5115 53.0845 88.8178Z" fill="#FED46C"/>
</svg>
